<?xml version="1.0" encoding="utf-8"?>
<svg viewBox="-14.243 443.098 509.76 370.215" xmlns="http://www.w3.org/2000/svg" xmlns:bx="https://boxy-svg.com">
  <g transform="matrix(2.651022, 0, 0, 2.651022, -376.372295, 371.276256)" style="">
    <path d="M 245.661 45.977 C 245.661 48.546 244.874 50.93 243.528 52.905 C 241.886 53.472 237.946 53.873 233.346 53.873 C 228.747 53.873 224.807 53.472 223.165 52.905 C 221.819 50.931 221.032 48.546 221.032 45.977 C 221.032 39.175 226.546 33.663 233.346 33.663 C 240.147 33.663 245.661 39.175 245.661 45.977 Z" style="stroke: rgb(0, 0, 0); fill: rgba(242, 232, 249, 0.86); stroke-width: 0.754426px;"/>
    <path d="M 242.536 46.868 C 242.536 49.525 241.408 51.918 239.606 53.596 C 237.829 53.77 235.673 53.873 233.346 53.873 C 231.021 53.873 228.864 53.77 227.088 53.596 C 225.285 51.918 224.157 49.525 224.157 46.868 C 224.157 41.793 228.271 37.679 233.346 37.679 C 238.422 37.679 242.536 41.793 242.536 46.868 Z" style="stroke: rgb(0, 0, 0); fill: rgb(255, 255, 255); stroke-width: 0.754426px;"/>
    <path d="M 258.602 62.302 L 258.588 62.072 L 258.565 61.686 C 258.556 61.538 258.358 61.439 258.125 61.466 L 253.383 62.011 C 253.488 62.383 253.571 62.761 253.631 63.145 L 258.196 62.62 C 258.429 62.593 258.611 62.451 258.602 62.302 Z" style="stroke: rgb(0, 0, 0); fill: rgb(255, 255, 255); stroke-width: 0.754426px;" transform="matrix(0.136001, 0.990709, -0.990709, 0.136001, 282.901808, -199.784167)"/>
    <path d="M 246.733 68.269 C 246.952 68.32 247.994 67.845 248.873 66.846 C 249.981 65.586 250.994 63.895 251.426 62.904 C 251.894 61.83 252.454 59.446 252.359 57.643 C 252.299 56.506 252.125 55.277 251.987 54.221 L 248.072 54.735 C 248.232 55.632 248.317 56.561 248.317 57.513 C 248.317 61.492 246.822 65.106 244.474 67.596 C 244.873 67.668 246.475 68.208 246.733 68.269 Z" style="stroke: rgb(0, 0, 0); fill: rgb(226, 226, 226); stroke-width: 0.754426px;" transform="matrix(0.081555, 0.996669, -0.996669, 0.081555, 289.204602, -191.342416)"/>
    <path d="M 259.929 62.974 C 259.783 62.484 259.071 60.868 258.743 60.621 C 258.386 60.352 257.922 60.211 257.401 60.203 C 256.856 60.195 256.37 60.337 256.094 60.716 C 255.558 61.449 256.331 63.114 256.496 63.483 L 259.929 62.974 Z" style="stroke: rgb(0, 0, 0); fill: rgb(155, 69, 217); stroke-width: 0.754426px;" transform="matrix(0.081555, 0.996669, -0.996669, 0.081555, 298.520547, -200.259821)"/>
    <path d="M 221.84 72.337 L 221.806 72.104 L 221.75 71.716 C 221.728 71.566 221.567 71.467 221.389 71.494 L 217.786 72.043 C 217.904 72.417 218.005 72.799 218.089 73.186 L 221.558 72.658 C 221.735 72.631 221.862 72.487 221.84 72.337 Z" style="stroke: rgb(0, 0, 0); fill: rgb(255, 255, 255); stroke-width: 0.754426px;" transform="matrix(-1, 0, 0, -1, 439.628464, 144.675568)"/>
    <path d="M 245.105 68.648 C 245.105 70.914 244.627 73.05 243.784 74.929 L 244.59 86.694 L 244.588 86.694 C 244.687 89.015 243.059 90.993 240.9 91.142 C 238.743 91.289 236.859 89.552 236.64 87.239 L 236.638 87.239 L 236.269 81.847 C 235.334 82.124 234.355 82.271 233.346 82.271 C 232.338 82.271 231.359 82.124 230.425 81.847 L 230.055 87.239 L 230.053 87.239 C 229.834 89.552 227.95 91.289 225.792 91.142 C 223.635 90.993 222.006 89.015 222.105 86.694 L 222.103 86.694 L 222.91 74.929 C 222.066 73.05 221.588 70.914 221.588 68.648 C 221.588 64.652 223.074 61.058 225.44 58.566 C 227.321 58.95 230.164 59.195 233.347 59.195 C 236.529 59.195 239.372 58.951 241.253 58.566 C 243.619 61.058 245.105 64.652 245.105 68.648 Z" style="stroke: rgb(0, 0, 0); fill: rgb(226, 226, 226); stroke-width: 0.754426px;"/>
    <path d="M 235.149 61.441 L 231.545 61.441 L 232.771 59.316 C 232.962 59.317 233.154 59.318 233.346 59.318 C 233.54 59.318 233.731 59.317 233.922 59.316 Z" style="fill: none; stroke: rgb(0, 0, 0); stroke-width: 0.754426px;"/>
    <path d="M 243.851 57.462 C 243.851 58.419 239.148 59.195 233.346 59.195 C 227.546 59.195 222.842 58.419 222.842 57.462 C 222.842 57.45 222.843 57.438 222.844 57.427 L 222.842 57.427 L 222.842 52.778 C 224.235 53.412 228.411 53.873 233.346 53.873 C 238.282 53.873 242.458 53.412 243.851 52.778 L 243.851 57.427 L 243.849 57.427 C 243.85 57.438 243.851 57.45 243.851 57.462 Z" style="stroke: rgb(0, 0, 0); fill: rgb(212, 212, 212); stroke-width: 0.754426px;"/>
    <path d="M 233.362 37.679 C 235.9 37.679 238.198 38.714 239.907 40.446 C 239.34 40.024 236.729 40.944 235.527 42.845 C 234.38 44.658 234.484 47.434 234.545 47.841 L 232.152 47.841 C 232.218 47.434 232.321 44.658 231.174 42.845 C 229.973 40.944 227.361 40.024 226.717 40.53 C 228.36 38.784 230.732 37.679 233.362 37.679" style="stroke: rgb(0, 0, 0); stroke-width: 0.754426px;"/>
    <path d="M -233.312 -52.468 L -230.641 -47.841 L -235.984 -47.841 L -233.312 -52.468 Z" style="fill: rgb(243, 199, 0); stroke-width: 0.754426px;" transform="matrix(-1, 0, 0, -1, 0, 0)" bx:shape="triangle -235.984 -52.468 5.343 4.627 0.5 0 1@b717a5d0"/>
    <circle style="stroke: rgb(0, 0, 0); fill: rgb(155, 69, 217); stroke-width: 0.754426px;" cx="224.847" cy="55.882" r="1.532"/>
    <circle style="stroke: rgb(0, 0, 0); fill: rgb(155, 69, 217); stroke-width: 0.754426px;" cx="241.847" cy="55.882" r="1.532"/>
    <circle style="stroke: rgb(0, 0, 0); fill: rgb(155, 69, 217); stroke-width: 0.754426px;" cx="233.347" cy="56.559" r="1.532"/>
    <circle style="stroke: rgb(0, 0, 0); fill: rgb(155, 69, 217); stroke-width: 0.754426px;" cx="228.92" cy="56.361" r="1.532"/>
    <circle style="stroke: rgb(0, 0, 0); fill: rgb(155, 69, 217); stroke-width: 0.754426px;" cx="237.774" cy="56.361" r="1.532"/>
    <line style="stroke: rgb(0, 0, 0); fill: none; stroke-width: 0.754426px;" x1="233.321" y1="61.441" x2="233.34" y2="71.333"/>
    <path d="M 221.817 71.333 L 244.876 71.333 C 244.684 72.452 244.372 73.521 243.958 74.522 L 222.735 74.522 C 222.321 73.521 222.01 72.452 221.817 71.333 Z" style="fill: none; stroke: rgb(0, 0, 0); stroke-width: 0.754426px;"/>
    <path d="M 240.9 91.142 C 238.743 91.289 236.859 89.552 236.64 87.239 L 236.638 87.239 L 236.609 86.81 L 244.592 86.81 C 244.633 89.08 243.023 90.996 240.9 91.142 Z" style="stroke: rgb(0, 0, 0); fill: rgb(155, 69, 217);"/>
    <path d="M 226.355 86.819 C 224.197 86.671 222.313 88.409 222.094 90.721 L 222.093 90.721 L 222.063 91.15 L 230.046 91.15 C 230.087 88.88 228.477 86.965 226.355 86.819 Z" style="stroke: rgb(0, 0, 0); fill: rgb(155, 69, 217);" transform="matrix(-1, 0, 0, -1, 452.109772, 177.960213)"/>
    <line style="stroke: rgb(0, 0, 0); fill: none; stroke-width: 0.754426px;" x1="233.302" y1="74.522" x2="233.321" y2="82.195"/>
    <path d="M 219.772 71.959 C 219.99 72.01 221.032 71.534 221.911 70.536 C 223.02 69.276 224.032 67.585 224.464 66.595 C 224.932 65.52 225.492 63.136 225.397 61.333 C 225.338 60.196 225.164 58.967 225.025 57.911 L 221.111 58.425 C 221.271 59.322 221.356 60.251 221.356 61.203 C 221.356 65.181 219.86 68.795 217.513 71.286 C 217.911 71.357 219.513 71.898 219.772 71.959 Z" style="stroke: rgb(0, 0, 0); fill: rgb(226, 226, 226); stroke-width: 0.754426px;" transform="matrix(-1, 0, 0, -1, 442.920639, 129.873699)"/>
    <path d="M 222.126 75.462 C 221.98 74.972 221.268 73.356 220.94 73.109 C 220.582 72.84 220.119 72.698 219.598 72.691 C 219.053 72.682 218.567 72.825 218.29 73.204 C 217.756 73.937 218.528 75.601 218.692 75.971 L 222.126 75.462 Z" style="stroke: rgb(0, 0, 0); fill: rgb(155, 69, 217); stroke-width: 0.754426px;" transform="matrix(-1, 0, 0, -1, 440.230469, 148.661606)"/>
    <path d="M 235.344 35.137 C 235.807 35.132 236.353 35.14 236.957 35.212 C 237.819 35.314 239.451 35.633 239.948 35.804 C 240.274 35.915 240.478 36.26 240.411 36.36 C 240.339 36.467 240.064 36.798 239.457 36.799 C 239.133 36.8 238.928 36.41 238.475 36.265 C 238.136 36.157 237.434 35.98 237.043 35.929 C 236.476 35.856 235.505 35.898 235.256 35.839 C 235.168 35.818 234.59 36.052 234.51 36.034 C 234.331 35.996 234.026 36.185 233.764 36.104 C 233.515 36.026 233.102 35.625 233.165 35.528 C 233.233 35.422 233.989 35.277 234.336 35.212 C 234.626 35.158 234.956 35.141 235.344 35.137 Z" style="fill: none; stroke: rgb(0, 0, 0); stroke-width: 0.377213px;" transform="matrix(0.989142, 0.14696, -0.14696, 0.989142, 7.856748, -34.408318)"/>
    <path d="M 235.735 36.357 C 235.941 36.355 236.184 36.358 236.453 36.39 C 236.836 36.435 237.562 36.577 237.784 36.653 C 237.929 36.703 237.963 36.742 237.933 36.786 C 237.901 36.834 237.724 36.9 237.559 36.929 C 237.412 36.955 237.191 36.964 237.021 36.963 C 236.863 36.962 236.747 36.952 236.573 36.929 C 236.321 36.897 235.771 36.786 235.661 36.76 C 235.622 36.75 235.651 36.75 235.616 36.743 C 235.536 36.726 235.179 36.696 235.063 36.66 C 234.952 36.625 234.885 36.576 234.914 36.533 C 234.944 36.486 235.133 36.419 235.287 36.39 C 235.416 36.366 235.563 36.359 235.735 36.357 Z" style="stroke: rgb(0, 0, 0); fill: none; stroke-width: 0.377213px;" transform="matrix(0.989142, 0.14696, -0.14696, 0.989142, 7.954528, -34.347012)"/>
    <g transform="matrix(0.501668, 0, 0, 0.501668, 95.756683, 33.663078)">
      <g>
        <g>
          <g transform="matrix(1, 0, 0, 1, -0.233947, 0)">
            <g>
              <circle style="stroke-width: 1.50384px;" cx="263.249" cy="23.78" r="4.422"/>
              <path d="M 262.355 20.529 C 262.793 20.468 263.542 20.666 263.797 20.922 C 264.004 21.13 264.027 21.537 263.971 21.795 C 263.917 22.044 263.788 22.201 263.564 22.377 C 263.311 22.576 262.544 23.005 262.266 23.326 C 261.88 23.773 262.046 24.875 261.657 25.246 C 261.389 25.5 260.961 25.474 260.696 25.42 C 260.465 25.374 260.254 25.243 260.128 25.027 C 259.969 24.755 259.92 24.233 259.953 23.804 C 259.989 23.335 260.17 22.757 260.39 22.319 C 260.599 21.903 260.89 21.527 261.22 21.228 C 261.546 20.932 261.937 20.587 262.355 20.529 Z" style="fill: rgb(255, 255, 255); stroke-width: 1.50384px;"/>
            </g>
          </g>
          <g transform="matrix(1, 0, 0, 1, 22.265959, 0)">
            <g>
              <circle style="stroke-width: 1.50384px;" cx="263.249" cy="23.78" r="4.422"/>
              <path d="M 262.355 20.529 C 262.793 20.468 263.542 20.666 263.797 20.922 C 264.004 21.13 264.027 21.537 263.971 21.795 C 263.917 22.044 263.788 22.201 263.564 22.377 C 263.311 22.576 262.544 23.005 262.266 23.326 C 261.88 23.773 262.046 24.875 261.657 25.246 C 261.389 25.5 260.961 25.474 260.696 25.42 C 260.465 25.374 260.254 25.243 260.128 25.027 C 259.969 24.755 259.92 24.233 259.953 23.804 C 259.989 23.335 260.17 22.757 260.39 22.319 C 260.599 21.903 260.89 21.527 261.22 21.228 C 261.546 20.932 261.937 20.587 262.355 20.529 Z" style="fill: rgb(255, 255, 255); stroke-width: 1.50384px;"/>
            </g>
          </g>
        </g>
      </g>
    </g>
    <line style="stroke: rgb(0, 0, 0); fill: none; stroke-width: 3px;" x1="258.271" y1="30.956" x2="258.77" y2="96.62"/>
    <path d="M 232.744 91.15 C 279.338 91.15 318.407 123.368 328.888 166.742 L 136.6 166.742 C 147.081 123.368 186.15 91.15 232.744 91.15 Z" style="fill: rgb(112, 112, 112);"/>
    <rect x="258.271" y="27.092" width="40.702" height="24.621" rx="4.473" ry="4.473" style="fill: rgb(255, 255, 255); stroke: rgb(0, 0, 0); stroke-width: 3px;"/>
    <path d="M 275.944 43.958 C 275.206 45.878 273.076 47.086 270.826 47.203 C 270.935 45.04 272.14 42.83 274.108 42.085 L 274.506 42.491 C 273.31 43.679 272.899 44.647 272.834 45.19 C 273.383 45.124 274.398 44.716 275.55 43.555 L 275.944 43.958 Z" style="fill: rgb(255, 179, 0); stroke-width: 8px;"/>
    <path d="M 279.428 44.744 C 280.473 44.335 281.681 43.757 282.91 42.954 C 282.924 44.342 282.211 46.131 280.879 47.462 C 280.372 47.97 279.78 48.416 279.116 48.76 C 280.023 47.562 280.267 46.241 279.428 44.744 Z M 287.979 31.125 L 287.979 31.171 C 287.979 38.358 282.359 42.195 277.851 43.642 L 274.398 40.189 C 275.674 35.836 279.672 30.045 286.954 30.045 C 287.276 30.045 287.603 30.056 287.937 30.079 C 287.964 30.436 287.978 30.784 287.979 31.125 Z M 273.278 38.594 C 271.781 37.754 270.463 38.005 269.264 38.912 C 269.609 38.25 270.055 37.657 270.562 37.152 C 271.891 35.824 273.672 35.105 275.058 35.113 C 274.307 36.244 273.719 37.43 273.278 38.594 Z M 284.86 34.723 C 284.86 33.862 284.162 33.164 283.3 33.164 C 282.439 33.164 281.74 33.862 281.74 34.723 C 281.74 35.585 282.439 36.283 283.3 36.283 C 284.162 36.283 284.86 35.585 284.86 34.723 Z" style="fill: rgb(155, 69, 217);"/>
    <ellipse style="stroke: rgb(0, 0, 0); stroke-width: 2px; fill: rgb(62, 62, 62);" cx="192.221" cy="127.846" rx="10.281" ry="10.394"/>
    <ellipse style="stroke: rgb(0, 0, 0); stroke-width: 2px; fill: rgb(62, 62, 62);" cx="252.727" cy="115.122" rx="9.521" ry="12.427"/>
    <ellipse style="stroke: rgb(0, 0, 0); stroke-width: 2px; fill: rgb(62, 62, 62);" cx="228.668" cy="146.442" rx="8.574" ry="11.534"/>
    <ellipse style="stroke: rgb(0, 0, 0); stroke-width: 2px; fill: rgb(62, 62, 62);" cx="353.371" cy="457.068" rx="14.169" ry="9.75" transform="matrix(0.854517, 0.519424, -0.519424, 0.854517, 224.535823, -431.835466)"/>
    <ellipse style="stroke: rgb(0, 0, 0); stroke-width: 2px; fill: rgb(62, 62, 62);" cx="120.98" cy="473.812" rx="11.781" ry="7.118" transform="matrix(0.894359, 0.447351, -0.447351, 0.894359, 271.981153, -324.272238)"/>
    <g style="" transform="matrix(0.501668, 0, 0, 0.501668, 107.528931, -84.091202)">
      <circle style="" cx="161.703" cy="471.264" r="3.407"/>
      <circle style="" cx="156.917" cy="476.05" r="1.379"/>
      <circle style="" cx="161.234" cy="477.309" r="1.25"/>
    </g>
    <g transform="matrix(0.680429, 0, 0, 0.680429, 149.902161, -169.639023)" style="">
      <circle style="" cx="161.703" cy="471.264" r="3.407"/>
      <circle style="" cx="156.917" cy="476.05" r="1.379"/>
      <circle style="" cx="161.234" cy="477.309" r="1.25"/>
    </g>
    <g transform="matrix(0.028353, -0.984472, 0.984472, 0.028353, -255.714813, 260.858887)" style="">
      <circle style="" cx="161.703" cy="471.264" r="3.407"/>
      <circle style="" cx="156.917" cy="476.05" r="1.379"/>
      <circle style="" cx="161.234" cy="477.309" r="1.25"/>
    </g>
  </g>
</svg>