<?xml version="1.0" encoding="utf-8"?>
<svg viewBox="-452.94 443.098 325.069 377.373" xmlns="http://www.w3.org/2000/svg" xmlns:bx="https://boxy-svg.com">
  <g transform="matrix(2.25572, 0, 0, 2.25572, -1255.730384, 415.638776)">
    <g transform="matrix(0.254139, 0.146727, -0.146727, 0.254139, 401.495789, -3.568049)" style="">
      <g>
        <path d="M313.43 279.87L313.43 378L340.69 400.67L340.69 433.27L387.64 485.3L387.64 324.43L313.43 279.87" transform="matrix(1, 0, 0, 1, 0, 0)" opacity="1" fill="#6a219e" fill-opacity="1"/>
        <g>
          <path d="M313.43 279.87L313.43 378L340.69 400.67L340.69 433.27L387.64 485.3L387.64 324.43L313.43 279.87" transform="matrix(1, 0, 0, 1, 0, 0)" opacity="1" fill-opacity="0" stroke="#000000" stroke-width="1" stroke-opacity="0"/>
        </g>
      </g>
      <g>
        <path d="M181.34 279.87L181.34 378L154.08 400.67L154.08 433.27L107.16 485.3L107.16 324.43L181.34 279.87" transform="matrix(1, 0, 0, 1, 0, 0)" opacity="1" fill="#6a219e" fill-opacity="1"/>
        <g>
          <path d="M181.34 279.87L181.34 378L154.08 400.67L154.08 433.27L107.16 485.3L107.16 324.43L181.34 279.87" transform="matrix(1, 0, 0, 1, 0, 0)" opacity="1" fill-opacity="0" stroke="#000000" stroke-width="1" stroke-opacity="0"/>
        </g>
      </g>
      <g>
        <path d="M350.53 217.93C350.53 338.22 303.96 435.76 246.56 435.76C189.1 435.76 142.56 338.22 142.56 217.93C142.56 97.61 227.97 0.07 246.56 0.07C261.39 0.07 350.53 97.61 350.53 217.93" transform="matrix(1, 0, 0, 1, 0, 0)" opacity="1" fill="#e8d0f8" fill-opacity="1"/>
        <g>
          <path d="M350.53 217.93C350.53 338.22 303.96 435.76 246.56 435.76C189.1 435.76 142.56 338.22 142.56 217.93C142.56 97.61 227.97 0.07 246.56 0.07C261.39 0.07 350.53 97.61 350.53 217.93" transform="matrix(1, 0, 0, 1, 0, 0)" opacity="1" fill-opacity="0" stroke="#000000" stroke-width="1" stroke-opacity="0"/>
        </g>
      </g>
      <g>
        <path d="M309.38 72.72C283.86 28.16 254.55 0.07 246.59 0.07C236.64 0.07 207.48 28.16 182.56 72.72C191.01 72.72 233.28 72.72 309.38 72.72" transform="matrix(1, 0, 0, 1, 0, 0)" opacity="1" fill="#6a219e" fill-opacity="1"/>
        <g>
          <path d="M309.38 72.72C283.86 28.16 254.55 0.07 246.59 0.07C236.64 0.07 207.48 28.16 182.56 72.72C191.01 72.72 233.28 72.72 309.38 72.72" transform="matrix(1, 0, 0, 1, 0, 0)" opacity="1" fill-opacity="0" stroke="#000000" stroke-width="1" stroke-opacity="0"/>
        </g>
      </g>
      <g>
        <path d="M270.39 375.57C270.39 442.3 259.7 496.42 246.53 496.42C233.36 496.42 222.7 442.3 222.7 375.57C222.7 308.84 233.36 254.71 246.53 254.71C259.7 254.71 270.39 308.84 270.39 375.57" transform="matrix(1, 0, 0, 1, 0, 0)" opacity="1" fill="#6a219e" fill-opacity="1"/>
        <g>
          <path d="M270.39 375.57C270.39 442.3 259.7 496.42 246.53 496.42C233.36 496.42 222.7 442.3 222.7 375.57C222.7 308.84 233.36 254.71 246.53 254.71C259.7 254.71 270.39 308.84 270.39 375.57" transform="matrix(1, 0, 0, 1, 0, 0)" opacity="1" fill-opacity="0" stroke="#000000" stroke-width="1" stroke-opacity="0"/>
        </g>
      </g>
      <g>
        <path d="M309.2 173.66C309.2 208.25 281.14 236.34 246.53 236.34C211.89 236.34 183.86 208.25 183.86 173.66C183.86 139.07 211.89 111.01 246.53 111.01C281.14 111.01 309.2 139.07 309.2 173.66" transform="matrix(1, 0, 0, 1, 0, 0)" opacity="1" fill="#6b219f" fill-opacity="1"/>
        <g>
          <path d="M309.2 173.66C309.2 208.25 281.14 236.34 246.53 236.34C211.89 236.34 183.86 208.25 183.86 173.66C183.86 139.07 211.89 111.01 246.53 111.01C281.14 111.01 309.2 139.07 309.2 173.66" transform="matrix(1, 0, 0, 1, 0, 0)" opacity="1" fill-opacity="0" stroke="#000000" stroke-width="1" stroke-opacity="0"/>
        </g>
      </g>
      <g>
        <path d="M289.84 173.66C289.84 197.57 270.45 216.99 246.53 216.99C222.61 216.99 203.22 197.57 203.22 173.66C203.22 149.75 222.61 130.37 246.53 130.37C270.45 130.37 289.84 149.75 289.84 173.66" transform="matrix(1, 0, 0, 1, 0, 0)" opacity="1" fill="#ffffff" fill-opacity="1"/>
        <g>
          <path d="M289.84 173.66C289.84 197.57 270.45 216.99 246.53 216.99C222.61 216.99 203.22 197.57 203.22 173.66C203.22 149.75 222.61 130.37 246.53 130.37C270.45 130.37 289.84 149.75 289.84 173.66" transform="matrix(1, 0, 0, 1, 0, 0)" opacity="1" fill-opacity="0" stroke="#000000" stroke-width="1" stroke-opacity="0"/>
        </g>
      </g>
    </g>
    <g transform="matrix(0.251233, 0, 0, 0.251233, 344.557983, -46.320992)" style="">
      <g style="" transform="matrix(2.767532, 0, 0, 2.942611, -0.15184, -1127.48584)">
        <path d="M 135.265 532.586 C 140.325 532.586 144.905 534.649 148.311 538.101 C 147.181 537.26 141.977 539.095 139.581 542.884 C 137.295 546.498 137.501 552.032 137.624 552.842 L 132.854 552.842 C 132.985 552.032 133.191 546.498 130.904 542.884 C 128.509 539.095 123.304 537.26 122.02 538.27 C 125.294 534.788 130.022 532.586 135.265 532.586" style="stroke: rgb(0, 0, 0);"/>
        <path d="M -135.165 -562.065 L -129.84 -552.841 L -140.491 -552.841 L -135.165 -562.065 Z" style="fill: rgb(243, 199, 0);" transform="matrix(-1, 0, 0, -1, 0, 0)" bx:shape="triangle -140.491 -562.065 10.651 9.224 0.5 0 1@dcd3136f"/>
        <g transform="matrix(1, 0, 0, 1, -139.030731, 524.580627)">
          <g>
            <g>
              <g transform="matrix(1, 0, 0, 1, -0.233947, 0)">
                <g>
                  <circle style="" cx="263.249" cy="23.78" r="4.422"/>
                  <path stroke-width="0" d="M 262.355 20.529 C 262.793 20.468 263.542 20.666 263.797 20.922 C 264.004 21.13 264.027 21.537 263.971 21.795 C 263.917 22.044 263.788 22.201 263.564 22.377 C 263.311 22.576 262.544 23.005 262.266 23.326 C 261.88 23.773 262.046 24.875 261.657 25.246 C 261.389 25.5 260.961 25.474 260.696 25.42 C 260.465 25.374 260.254 25.243 260.128 25.027 C 259.969 24.755 259.92 24.233 259.953 23.804 C 259.989 23.335 260.17 22.757 260.39 22.319 C 260.599 21.903 260.89 21.527 261.22 21.228 C 261.546 20.932 261.937 20.587 262.355 20.529 Z" style="stroke-width: 2px; fill: rgb(255, 255, 255);"/>
                </g>
              </g>
              <g transform="matrix(1, 0, 0, 1, 22.265959, 0)">
                <g>
                  <circle style="" cx="263.249" cy="23.78" r="4.422"/>
                  <path stroke-width="0" d="M 262.355 20.529 C 262.793 20.468 263.542 20.666 263.797 20.922 C 264.004 21.13 264.027 21.537 263.971 21.795 C 263.917 22.044 263.788 22.201 263.564 22.377 C 263.311 22.576 262.544 23.005 262.266 23.326 C 261.88 23.773 262.046 24.875 261.657 25.246 C 261.389 25.5 260.961 25.474 260.696 25.42 C 260.465 25.374 260.254 25.243 260.128 25.027 C 259.969 24.755 259.92 24.233 259.953 23.804 C 259.989 23.335 260.17 22.757 260.39 22.319 C 260.599 21.903 260.89 21.527 261.22 21.228 C 261.546 20.932 261.937 20.587 262.355 20.529 Z" style="stroke-width: 2px; fill: rgb(255, 255, 255);"/>
                </g>
              </g>
            </g>
          </g>
        </g>
      </g>
    </g>
  </g>
</svg>