<?xml version="1.0" encoding="utf-8"?>
<svg viewBox="210.728 33.693 209.287 380.201" xmlns="http://www.w3.org/2000/svg" xmlns:bx="https://boxy-svg.com">
  <g style="" transform="matrix(2.108028, 0, 0, 2.108028, 210.727698, 33.692624)">
    <path d="M 88.31 38.633 C 88.31 46.693 85.842 54.176 81.62 60.369 C 76.468 62.151 64.106 63.406 49.676 63.406 C 35.246 63.406 22.885 62.151 17.733 60.369 C 13.511 54.177 11.043 46.693 11.043 38.633 C 11.043 17.296 28.339 0 49.676 0 C 71.013 0 88.31 17.296 88.31 38.633 Z" style="stroke: rgb(0, 0, 0); fill: rgba(242, 232, 249, 0.86);"/>
    <path d="M 78.507 41.43 C 78.507 49.765 74.969 57.274 69.314 62.538 C 63.74 63.085 56.973 63.406 49.676 63.406 C 42.38 63.406 35.613 63.085 30.039 62.538 C 24.384 57.274 20.846 49.765 20.846 41.43 C 20.846 25.507 33.754 12.6 49.676 12.6 C 65.599 12.6 78.507 25.507 78.507 41.43 Z" style="stroke: rgb(0, 0, 0); fill: rgb(255, 255, 255);"/>
    <path d="M 98.415 121.27 L 98.31 122.001 L 98.133 123.219 C 98.065 123.689 97.558 124.001 97.001 123.916 L 85.698 122.193 C 86.066 121.018 86.384 119.821 86.649 118.606 L 97.53 120.265 C 98.087 120.35 98.483 120.8 98.415 121.27 Z" style="stroke: rgb(0, 0, 0); fill: rgb(255, 255, 255);"/>
    <path d="M 81.598 76.019 C 82.282 75.858 85.552 77.349 88.31 80.483 C 91.788 84.435 94.964 89.741 96.319 92.849 C 97.789 96.221 99.545 103.7 99.248 109.357 C 99.061 112.924 98.514 116.779 98.081 120.09 L 85.798 118.479 C 86.301 115.665 86.566 112.75 86.566 109.763 C 86.566 97.282 81.875 85.943 74.511 78.13 C 75.76 77.905 80.787 76.209 81.598 76.019 Z" style="stroke: rgb(0, 0, 0); fill: rgb(226, 226, 226);"/>
    <path d="M 13.576 121.336 L 13.47 120.605 L 13.294 119.387 C 13.225 118.917 12.719 118.605 12.161 118.69 L 0.858 120.413 C 1.227 121.588 1.545 122.785 1.809 124 L 12.691 122.341 C 13.248 122.256 13.644 121.806 13.576 121.336 Z" style="stroke: rgb(0, 0, 0); fill: rgb(255, 255, 255);" transform="matrix(-1, 0, 0, -1, 14.441598, 242.676048)"/>
    <path d="M 86.566 109.763 C 86.566 116.87 85.068 123.572 82.42 129.468 L 84.951 166.377 L 84.946 166.378 C 85.256 173.659 80.146 179.866 73.376 180.331 C 66.606 180.795 60.696 175.344 60.008 168.088 L 60.003 168.088 L 58.843 151.17 C 55.912 152.039 52.841 152.5 49.676 152.5 C 46.512 152.5 43.441 152.039 40.509 151.17 L 39.349 168.088 L 39.344 168.088 C 38.657 175.344 32.747 180.795 25.976 180.331 C 19.206 179.866 14.097 173.659 14.407 166.378 L 14.401 166.377 L 16.933 129.468 C 14.284 123.572 12.787 116.87 12.787 109.763 C 12.787 97.225 17.447 85.948 24.871 78.13 C 30.772 79.336 39.693 80.105 49.677 80.105 C 59.66 80.105 68.581 79.337 74.481 78.13 C 81.905 85.948 86.566 97.225 86.566 109.763 Z" style="stroke: rgb(0, 0, 0); fill: rgb(226, 226, 226);"/>
    <path d="M 55.33 87.15 L 44.023 87.15 L 47.872 80.483 C 48.469 80.488 49.071 80.491 49.676 80.491 C 50.282 80.491 50.883 80.488 51.481 80.483 Z" style="fill: none; stroke: rgb(0, 0, 0);"/>
    <path d="M 82.631 74.666 C 82.631 77.67 67.877 80.105 49.676 80.105 C 31.476 80.105 16.721 77.67 16.721 74.666 C 16.721 74.628 16.723 74.592 16.728 74.556 L 16.721 74.556 L 16.721 59.971 C 21.09 61.961 34.192 63.406 49.676 63.406 C 65.161 63.406 78.263 61.961 82.631 59.971 L 82.631 74.556 L 82.626 74.556 C 82.63 74.592 82.631 74.628 82.631 74.666 Z" style="stroke: rgb(0, 0, 0); fill: rgb(212, 212, 212);"/>
    <path d="M 49.724 12.6 C 57.688 12.6 64.897 15.848 70.257 21.281 C 68.479 19.957 60.288 22.846 56.518 28.808 C 52.919 34.497 53.243 43.207 53.438 44.481 L 45.93 44.481 C 46.136 43.207 46.46 34.497 42.861 28.808 C 39.091 22.846 30.899 19.957 28.878 21.547 C 34.031 16.066 41.473 12.6 49.724 12.6" style="stroke: rgb(0, 0, 0);"/>
    <path d="M -49.567 -58.998 L -41.185 -44.481 L -57.949 -44.481 L -49.567 -58.998 Z" style="fill: rgb(243, 199, 0);" transform="matrix(-1, 0, 0, -1, 0, 0)" bx:shape="triangle -57.949 -58.998 16.764 14.517 0.5 0 1@a685d033"/>
    <circle style="stroke: rgb(0, 0, 0); fill: rgb(155, 69, 217);" cx="23.01" cy="69.71" r="4.807"/>
    <circle style="stroke: rgb(0, 0, 0); fill: rgb(155, 69, 217);" cx="76.344" cy="69.71" r="4.807"/>
    <circle style="stroke: rgb(0, 0, 0); fill: rgb(155, 69, 217);" cx="49.677" cy="71.833" r="4.807"/>
    <circle style="stroke: rgb(0, 0, 0); fill: rgb(155, 69, 217);" cx="35.787" cy="71.212" r="4.807"/>
    <circle style="stroke: rgb(0, 0, 0); fill: rgb(155, 69, 217);" cx="63.566" cy="71.212" r="4.807"/>
    <line style="stroke: rgb(0, 0, 0); fill: none;" x1="49.596" y1="87.15" x2="49.656" y2="118.186"/>
    <path d="M 13.503 118.186 L 85.849 118.186 C 85.244 121.696 84.267 125.05 82.969 128.192 L 16.383 128.192 C 15.085 125.05 14.109 121.696 13.503 118.186 Z" style="stroke: rgb(0, 0, 0); fill: rgb(255, 255, 255);"/>
    <path d="M 73.376 180.331 C 66.606 180.795 60.696 175.344 60.008 168.088 L 60.003 168.088 L 59.911 166.743 L 84.957 166.743 C 85.085 173.865 80.033 179.874 73.376 180.331 Z" style="stroke: rgb(0, 0, 0); fill: rgb(155, 69, 217);"/>
    <path d="M 27.74 166.77 C 20.97 166.306 15.06 171.757 14.373 179.013 L 14.368 179.012 L 14.275 180.358 L 39.321 180.358 C 39.449 173.235 34.397 167.227 27.74 166.77 Z" style="stroke: rgb(0, 0, 0); fill: rgb(155, 69, 217);" transform="matrix(-1, 0, 0, -1, 53.598379, 347.100449)"/>
    <line style="stroke: rgb(0, 0, 0); fill: none;" x1="49.536" y1="128.192" x2="49.596" y2="152.263"/>
    <path d="M 7.087 120.149 C 7.772 120.309 11.041 118.818 13.799 115.685 C 17.278 111.732 20.454 106.427 21.809 103.319 C 23.278 99.947 25.034 92.467 24.737 86.81 C 24.55 83.244 24.004 79.389 23.57 76.077 L 11.288 77.688 C 11.791 80.502 12.056 83.418 12.056 86.404 C 12.056 98.886 7.365 110.224 0 118.038 C 1.249 118.262 6.277 119.958 7.087 120.149 Z" style="stroke: rgb(0, 0, 0); fill: rgb(226, 226, 226);" transform="matrix(-1, 0, 0, -1, 24.77017, 196.237633)"/>
    <path d="M 14.473 131.137 C 14.014 129.601 11.783 124.53 10.753 123.756 C 9.631 122.912 8.176 122.469 6.542 122.445 C 4.832 122.419 3.309 122.866 2.44 124.055 C 0.761 126.355 3.185 131.576 3.701 132.735 L 14.473 131.137 Z" style="stroke: rgb(0, 0, 0); fill: rgb(155, 69, 217);" transform="matrix(-1, 0, 0, -1, 16.329137, 255.178932)"/>
    <path d="M 55.944 4.627 C 57.396 4.612 59.109 4.637 61.005 4.862 C 63.708 5.182 68.827 6.183 70.389 6.717 C 71.411 7.067 72.05 8.149 71.84 8.461 C 71.615 8.799 70.751 9.838 68.848 9.842 C 67.831 9.844 67.187 8.619 65.766 8.165 C 64.702 7.826 62.502 7.271 61.272 7.111 C 59.494 6.881 56.446 7.013 55.667 6.827 C 55.392 6.762 53.577 7.496 53.327 7.442 C 52.763 7.321 51.809 7.915 50.987 7.659 C 50.205 7.416 48.909 6.155 49.106 5.853 C 49.322 5.522 51.692 5.066 52.781 4.862 C 53.689 4.692 54.725 4.64 55.944 4.627 Z" style="fill: none; stroke: rgb(0, 0, 0);" transform="matrix(0.989142, 0.14696, -0.14696, 0.989142, 1.719622, -8.810038)"/>
    <path d="M 57.171 8.453 C 57.818 8.446 58.58 8.457 59.423 8.557 C 60.625 8.699 62.902 9.145 63.597 9.382 C 64.051 9.538 64.159 9.661 64.066 9.8 C 63.965 9.95 63.411 10.158 62.893 10.249 C 62.431 10.33 61.736 10.356 61.205 10.353 C 60.708 10.351 60.345 10.32 59.797 10.249 C 59.007 10.147 57.283 9.799 56.937 9.717 C 56.815 9.687 56.908 9.688 56.796 9.664 C 56.546 9.61 55.427 9.517 55.061 9.403 C 54.713 9.295 54.505 9.14 54.592 9.006 C 54.688 8.859 55.28 8.648 55.765 8.557 C 56.169 8.481 56.63 8.458 57.171 8.453 Z" style="stroke: rgb(0, 0, 0); fill: none;" transform="matrix(0.989142, 0.14696, -0.14696, 0.989142, 2.025986, -8.617708)"/>
    <path d="M 97.497 124.042 C 97.037 125.578 94.806 130.649 93.776 131.423 C 92.655 132.267 91.199 132.709 89.565 132.734 C 87.856 132.76 86.332 132.313 85.463 131.124 C 83.783 128.823 86.209 123.603 86.725 122.444 L 97.497 124.042 Z" style="stroke: rgb(0, 0, 0); fill: rgb(155, 69, 217);"/>
  </g>
  <g transform="matrix(3.346238, 0, 0, 3.346238, -602.308856, 30.264171)" style="">
    <g>
      <g>
        <g transform="matrix(1, 0, 0, 1, -0.233947, 0)">
          <g>
            <circle style="stroke-width: 1.50384px;" cx="263.249" cy="23.78" r="4.422"/>
            <path d="M 262.355 20.529 C 262.793 20.468 263.542 20.666 263.797 20.922 C 264.004 21.13 264.027 21.537 263.971 21.795 C 263.917 22.044 263.788 22.201 263.564 22.377 C 263.311 22.576 262.544 23.005 262.266 23.326 C 261.88 23.773 262.046 24.875 261.657 25.246 C 261.389 25.5 260.961 25.474 260.696 25.42 C 260.465 25.374 260.254 25.243 260.128 25.027 C 259.969 24.755 259.92 24.233 259.953 23.804 C 259.989 23.335 260.17 22.757 260.39 22.319 C 260.599 21.903 260.89 21.527 261.22 21.228 C 261.546 20.932 261.937 20.587 262.355 20.529 Z" style="fill: rgb(255, 255, 255); stroke-width: 1.50384px;"/>
          </g>
        </g>
        <g transform="matrix(1, 0, 0, 1, 22.265959, 0)">
          <g>
            <circle style="stroke-width: 1.50384px;" cx="263.249" cy="23.78" r="4.422"/>
            <path d="M 262.355 20.529 C 262.793 20.468 263.542 20.666 263.797 20.922 C 264.004 21.13 264.027 21.537 263.971 21.795 C 263.917 22.044 263.788 22.201 263.564 22.377 C 263.311 22.576 262.544 23.005 262.266 23.326 C 261.88 23.773 262.046 24.875 261.657 25.246 C 261.389 25.5 260.961 25.474 260.696 25.42 C 260.465 25.374 260.254 25.243 260.128 25.027 C 259.969 24.755 259.92 24.233 259.953 23.804 C 259.989 23.335 260.17 22.757 260.39 22.319 C 260.599 21.903 260.89 21.527 261.22 21.228 C 261.546 20.932 261.937 20.587 262.355 20.529 Z" style="fill: rgb(255, 255, 255); stroke-width: 1.50384px;"/>
          </g>
        </g>
      </g>
    </g>
  </g>
</svg>