<svg width="500" height="500" viewBox="0 0 500 500" fill="none" xmlns="http://www.w3.org/2000/svg">
<path d="M271.52 392.708C299.458 381.792 331.749 366.333 364.562 344.874C364.938 381.98 345.895 429.792 310.312 465.332C296.75 478.895 280.957 490.832 263.208 500C287.436 468.001 293.958 432.708 271.52 392.708ZM500 28.854V30.083C500 222.083 349.832 324.624 229.415 363.271L137.167 271.02C171.249 154.708 278.061 0 472.603 0C481.207 0 489.957 0.292 498.875 0.915C499.604 10.437 499.958 19.75 500 28.854ZM107.228 228.416C67.248 205.978 32.041 212.687 0 236.916C9.207 219.209 21.125 203.396 34.665 189.873C70.166 154.395 117.749 135.208 154.79 135.416C134.729 165.625 119.02 197.29 107.228 228.416ZM416.667 124.999C416.667 101.978 398.02 83.333 375.001 83.333C351.979 83.333 333.332 101.978 333.332 124.999C333.332 148.021 351.979 166.666 375.001 166.666C398.02 166.666 416.667 148.021 416.667 124.999Z" fill="#9B45D9"/>
<ellipse cx="134.5" cy="362" rx="52.5" ry="52" fill="#FF7A00"/>
<path d="M199 368.736C172.216 442.263 94.7622 488.552 13 493C16.9396 410.217 60.7264 325.521 132.286 297L146.74 312.561C103.267 358.044 88.3291 395.134 85.9771 415.923C105.928 413.384 142.83 397.765 184.688 353.325L199 368.736Z" fill="#FFB300"/>
<path d="M155 382.796C141.032 422.561 100.639 447.594 58 450C60.0545 405.23 82.8896 359.424 120.208 344L127.746 352.415C105.075 377.014 97.2845 397.073 96.0579 408.315C106.462 406.942 125.707 398.495 147.536 374.461L155 382.796Z" fill="#FF7A00"/>
<path d="M147 373.862C139.512 395.245 117.858 408.706 95 410C96.1014 385.925 108.343 361.294 128.349 353L132.39 357.525C120.236 370.753 116.06 381.539 115.402 387.585C120.98 386.846 131.297 382.304 142.999 369.38L147 373.862Z" fill="#FF3D00"/>
</svg>
