<svg viewBox="0 0 500 500" xmlns="http://www.w3.org/2000/svg">
  <defs></defs>
  <path  d="M 178.458 371.709 C 158.769 423.001 101.832 455.292 41.728 458.395 C 44.624 400.646 76.812 341.562 129.416 321.666 L 140.041 332.521 C 108.084 364.25 97.103 390.124 95.374 404.626 C 110.04 402.855 137.167 391.959 167.937 360.958 L 178.458 371.709 Z" style="fill: rgb(255, 179, 0); stroke-width: 8px; stroke: rgb(255, 161, 11);"></path>
  <path d="M 271.52 392.708 C 299.458 381.792 331.749 366.333 364.562 344.874 C 364.938 381.98 345.895 429.792 310.312 465.332 C 296.75 478.895 280.957 490.832 263.208 500 C 287.436 468.001 293.958 432.708 271.52 392.708 Z M 500 28.854 L 500 30.083 C 500 222.083 349.832 324.624 229.415 363.271 L 137.167 271.02 C 171.249 154.708 278.061 0 472.603 0 C 481.207 0 489.957 0.292 498.875 0.915 C 499.604 10.437 499.958 19.75 500 28.854 Z M 107.228 228.416 C 67.248 205.978 32.041 212.687 0 236.916 C 9.207 219.209 21.125 203.396 34.665 189.873 C 70.166 154.395 117.749 135.208 154.79 135.416 C 134.729 165.625 119.02 197.29 107.228 228.416 Z M 416.667 124.999 C 416.667 101.978 398.02 83.333 375.001 83.333 C 351.979 83.333 333.332 101.978 333.332 124.999 C 333.332 148.021 351.979 166.666 375.001 166.666 C 398.02 166.666 416.667 148.021 416.667 124.999 Z" style="fill: rgb(155, 69, 217); "></path>
</svg>