<svg width="500" height="500" viewBox="0 0 500 500" fill="none" xmlns="http://www.w3.org/2000/svg">
<path d="M178.458 371.709C158.769 423.001 101.832 455.292 41.728 458.395C44.624 400.646 76.812 341.562 129.416 321.666L140.041 332.521C108.084 364.25 97.103 390.124 95.374 404.626C110.04 402.855 137.167 391.959 167.937 360.958L178.458 371.709Z" fill="#FFB300"/>
<path d="M271.52 392.708C299.458 381.792 331.749 366.333 364.562 344.874C364.938 381.98 345.895 429.792 310.312 465.332C296.75 478.895 280.957 490.832 263.208 500C287.436 468.001 293.958 432.708 271.52 392.708ZM500 28.854V30.083C500 222.083 349.832 324.624 229.415 363.271L137.167 271.02C171.249 154.708 278.061 0 472.603 0C481.207 0 489.957 0.292 498.875 0.915C499.604 10.437 499.958 19.75 500 28.854ZM107.228 228.416C67.248 205.978 32.041 212.687 0 236.916C9.207 219.209 21.125 203.396 34.665 189.873C70.166 154.395 117.749 135.208 154.79 135.416C134.729 165.625 119.02 197.29 107.228 228.416ZM416.667 124.999C416.667 101.978 398.02 83.333 375.001 83.333C351.979 83.333 333.332 101.978 333.332 124.999C333.332 148.021 351.979 166.666 375.001 166.666C398.02 166.666 416.667 148.021 416.667 124.999Z" fill="#3E92CC"/>
</svg>
